<?xml version="1.0" standalone="no"?>
<!DOCTYPE svg PUBLIC "-//W3C//DTD SVG 20010904//EN"
 "http://www.w3.org/TR/2001/REC-SVG-20010904/DTD/svg10.dtd">
<svg version="1.0" xmlns="http://www.w3.org/2000/svg"
 width="177.000000pt" height="89.000000pt" viewBox="0 0 177.000000 89.000000"
 preserveAspectRatio="xMidYMid meet">

<g transform="translate(0.000000,89.000000) scale(0.100000,-0.100000)"
fill="#000000" stroke="none">
<path d="M30 445 l0 -425 25 0 c22 0 24 4 27 58 l3 57 213 3 212 2 0 -60 0
-60 165 0 165 0 0 425 0 425 -165 0 -165 0 0 -345 0 -345 -212 2 -213 3 -3
343 -2 342 -25 0 -25 0 0 -425z m758 63 l-3 -323 -107 -3 -108 -3 0 326 0 325
110 0 110 0 -2 -322z m2 -408 l0 -40 -110 0 -110 0 0 40 0 40 110 0 110 0 0
-40z"/>
<path d="M970 444 l0 -425 28 3 27 3 3 248 2 248 68 -3 67 -3 109 -248 110
-247 166 0 c92 0 169 2 172 6 3 3 -41 109 -99 237 -58 128 -107 237 -109 243
-3 7 15 13 51 16 149 12 218 184 117 292 -51 54 -64 56 -402 56 l-310 0 0
-426z m627 367 c53 -25 75 -58 75 -117 0 -37 -6 -52 -29 -76 -51 -55 -68 -58
-353 -58 l-260 0 0 53 c0 28 -3 89 -7 135 l-6 82 269 0 c242 0 273 -2 311 -19z
m-46 -516 c54 -121 98 -224 98 -228 1 -4 -49 -6 -111 -5 l-112 3 -97 215 c-54
118 -98 221 -98 228 -1 10 25 12 110 10 l111 -3 99 -220z"/>
</g>
</svg>
